<svg width="140" height="140" viewBox="0 0 140 140" fill="none" xmlns="http://www.w3.org/2000/svg">
<path d="M81.6666 57.75V47.8333C84.875 46.4722 88.1572 45.4514 91.5133 44.7708C94.8655 44.0903 98.3889 43.75 102.083 43.75C104.611 43.75 107.09 43.9445 109.521 44.3333C111.951 44.7222 114.333 45.2083 116.667 45.7917V55.125C114.333 54.25 111.977 53.5947 109.597 53.1592C107.213 52.7197 104.708 52.5 102.083 52.5C98.3889 52.5 94.8403 52.9628 91.4375 53.8883C88.0347 54.81 84.7778 56.0972 81.6666 57.75ZM81.6666 89.8333V79.9167C84.875 78.5556 88.1572 77.5347 91.5133 76.8542C94.8655 76.1736 98.3889 75.8333 102.083 75.8333C104.611 75.8333 107.09 76.0278 109.521 76.4167C111.951 76.8056 114.333 77.2917 116.667 77.875V87.2083C114.333 86.3333 111.977 85.6781 109.597 85.2425C107.213 84.8031 104.708 84.5833 102.083 84.5833C98.3889 84.5833 94.8403 85.0208 91.4375 85.8958C88.0347 86.7708 84.7778 88.0833 81.6666 89.8333ZM81.6666 73.7917V63.875C84.875 62.5139 88.1572 61.4931 91.5133 60.8125C94.8655 60.132 98.3889 59.7917 102.083 59.7917C104.611 59.7917 107.09 59.9861 109.521 60.375C111.951 60.7639 114.333 61.25 116.667 61.8333V71.1667C114.333 70.2917 111.977 69.6364 109.597 69.2008C107.213 68.7614 104.708 68.5417 102.083 68.5417C98.3889 68.5417 94.8403 69.0045 91.4375 69.93C88.0347 70.8517 84.7778 72.1389 81.6666 73.7917ZM37.9166 93.3333C42.4861 93.3333 46.935 93.8428 51.2633 94.8617C55.5878 95.8845 59.8889 97.4167 64.1666 99.4583V42C60.1805 39.6667 55.9514 37.9167 51.4791 36.75C47.0069 35.5833 42.4861 35 37.9166 35C34.4166 35 30.9419 35.3403 27.4925 36.0208C24.0391 36.7014 20.7083 37.7222 17.5 39.0833V96.8334C20.9028 95.6667 24.2822 94.7917 27.6383 94.2083C30.9905 93.625 34.4166 93.3333 37.9166 93.3333ZM75.8333 99.4583C80.1111 97.4167 84.4141 95.8845 88.7425 94.8617C93.0669 93.8428 97.5139 93.3333 102.083 93.3333C105.583 93.3333 109.011 93.625 112.367 94.2083C115.72 94.7917 119.097 95.6667 122.5 96.8334V39.0833C119.292 37.7222 115.963 36.7014 112.513 36.0208C109.06 35.3403 105.583 35 102.083 35C97.5139 35 92.993 35.5833 88.5208 36.75C84.0486 37.9167 79.8194 39.6667 75.8333 42V99.4583ZM70 116.667C65.3333 112.972 60.2778 110.104 54.8333 108.063C49.3889 106.021 43.75 105 37.9166 105C33.8333 105 29.8239 105.535 25.8883 106.604C21.9489 107.674 18.1805 109.181 14.5833 111.125C12.5416 112.194 10.5739 112.146 8.67998 110.979C6.7822 109.813 5.83331 108.111 5.83331 105.875V35.5833C5.83331 34.5139 6.10165 33.4931 6.63831 32.5208C7.17109 31.5486 7.9722 30.8195 9.04165 30.3333C13.5139 28 18.1805 26.25 23.0416 25.0833C27.9028 23.9167 32.8611 23.3333 37.9166 23.3333C43.5555 23.3333 49.0739 24.0625 54.4716 25.5208C59.8655 26.9792 65.0416 29.1667 70 32.0833C74.9583 29.1667 80.1364 26.9792 85.5341 25.5208C90.928 24.0625 96.4444 23.3333 102.083 23.3333C107.139 23.3333 112.097 23.9167 116.958 25.0833C121.819 26.25 126.486 28 130.958 30.3333C132.028 30.8195 132.831 31.5486 133.367 32.5208C133.9 33.4931 134.167 34.5139 134.167 35.5833V105.875C134.167 108.111 133.22 109.813 131.326 110.979C129.428 112.146 127.458 112.194 125.417 111.125C121.819 109.181 118.051 107.674 114.112 106.604C110.176 105.535 106.167 105 102.083 105C96.25 105 90.6111 106.021 85.1666 108.063C79.7222 110.104 74.6666 112.972 70 116.667Z" fill="white"/>
</svg>
